<svg xmlns="http://www.w3.org/2000/svg" xmlns:xlink="http://www.w3.org/1999/xlink"><symbol id="arrow-link" viewBox="0 0 10 10">
<path d="M1 9L9 1M9 1H1.05298M9 1V8.94702"/>
</symbol><symbol id="arrow-slider" viewBox="0 0 11 12">
<path d="M11 5.6875H1M1 5.6875L5.96689 11M1 5.6875L5.96689 1"/>
</symbol><symbol id="burger" viewBox="0 0 20 10">
<path d="M1 1H19M1 5H19M1 9H19"/>
</symbol><symbol id="checkbox-true" viewBox="0 0 10 8">
<path d="M1 3.5L3.94737 7L9 1" stroke-linecap="round" stroke-linejoin="round"/>
</symbol><symbol id="close-modal" viewBox="0 0 20 20">
<path d="M1 19L10 10M10 10L19 1M10 10L19 19M10 10L1 1"/>
</symbol><symbol id="close" viewBox="0 0 18 18">
<path d="M1 17L9 9M9 9L17 1M9 9L17 17M9 9L1 1"/>
</symbol><symbol id="social-ok" viewBox="0 0 10 16">
<path d="M5.00071 2.42035C5.96283 2.42035 6.74528 3.18736 6.74528 4.1305C6.74528 5.0708 5.96283 5.83781 5.00071 5.83781C4.03859 5.83781 3.25614 5.0708 3.25614 4.1305C3.25614 3.18736 4.03859 2.42035 5.00071 2.42035ZM5.00071 8.25816C7.32488 8.25816 9.21435 6.40597 9.21435 4.1305C9.21435 1.85219 7.32488 0 5.00071 0C2.67654 0 0.789971 1.85219 0.789971 4.1305C0.789971 6.40597 2.67654 8.25816 5.00071 8.25816ZM6.70471 11.6273C7.56251 11.4342 8.38843 11.1018 9.15059 10.6331C9.72729 10.278 9.90116 9.53083 9.53892 8.96551C9.17378 8.39735 8.41451 8.22691 7.83492 8.58485C6.11063 9.6473 3.89079 9.6473 2.16361 8.58485C1.58691 8.22691 0.824747 8.39735 0.462502 8.96551C0.100257 9.53083 0.274134 10.278 0.850829 10.6331C1.61299 11.1018 2.43891 11.4342 3.29671 11.6273L0.940665 13.934C0.459603 14.4056 0.459603 15.1726 0.940665 15.6442C1.18409 15.88 1.49707 15.9993 1.81295 15.9993C2.12883 15.9993 2.44471 15.88 2.68814 15.6442L5.00071 13.3772L7.31618 15.6442C7.79724 16.1186 8.5768 16.1186 9.06075 15.6442C9.54182 15.1726 9.54182 14.4056 9.06075 13.934L6.70471 11.6273Z"/>
</symbol><symbol id="social-reddit" viewBox="0 0 16 16">
<path d="M9.41405 0.363525C8.94762 0.363525 8.50993 0.611969 8.22919 0.97025C7.94845 1.32853 7.79371 1.76527 7.68097 2.22554C7.50191 2.96564 7.44665 3.78681 7.43339 4.52691C6.12252 4.61844 4.93545 5.02641 3.94954 5.65668C3.54942 5.30363 3.06752 5.10749 2.60551 5.11272C2.0794 5.11795 1.57981 5.35593 1.20844 5.84497C0.498845 6.77859 0.580636 8.30587 1.40297 9.21334C1.35212 9.49317 1.31454 9.78084 1.31454 10.0711C1.31454 13.1466 4.30765 15.6363 7.99929 15.6363C11.6909 15.6363 14.684 13.144 14.684 10.0711C14.684 9.78084 14.6465 9.49317 14.5956 9.21334C15.4179 8.30587 15.4997 6.77859 14.7901 5.84497C14.4188 5.35593 13.9192 5.11795 13.3931 5.11272C12.9311 5.10749 12.4492 5.30363 12.049 5.65668C11.0676 5.02903 9.88711 4.62106 8.58288 4.52691C8.60056 3.84435 8.64699 3.13563 8.77741 2.60213C8.8592 2.26739 8.95646 2.02417 9.06036 1.8908C9.16426 1.75742 9.23942 1.7025 9.41405 1.7025C9.79206 1.7025 9.84069 1.83065 10.0684 2.14186C10.1833 2.29877 10.316 2.49491 10.5282 2.68582C10.7404 2.87673 11.0543 3.04148 11.3947 3.04148V1.7025C11.2997 1.7025 11.282 1.69989 11.2179 1.63974C11.1538 1.57959 11.0653 1.44098 10.9349 1.26315C10.6741 0.904871 10.1679 0.363525 9.41405 0.363525ZM13.0924 0.489055C12.2126 0.489055 11.5008 1.33115 11.5008 2.37199C11.5008 3.41284 12.2126 4.25493 13.0924 4.25493C13.9722 4.25493 14.684 3.41284 14.684 2.37199C14.684 1.33115 13.9722 0.489055 13.0924 0.489055ZM13.0924 1.15854C13.6583 1.15854 14.1181 1.7025 14.1181 2.37199C14.1181 3.04148 13.6583 3.58544 13.0924 3.58544C12.5265 3.58544 12.0667 3.04148 12.0667 2.37199C12.0667 1.7025 12.5265 1.15854 13.0924 1.15854ZM7.99929 5.57299C11.1317 5.57299 13.7821 7.63638 13.7821 10.0711C13.7821 12.5085 11.1317 14.5693 7.99929 14.5693C4.86692 14.5693 2.21645 12.5085 2.21645 10.0711C2.21645 7.63638 4.86692 5.57299 7.99929 5.57299ZM2.6232 6.17972C2.78015 6.18233 2.94373 6.22417 3.10068 6.30524C2.53256 6.81521 2.08161 7.40101 1.77434 8.06265C1.56213 7.54485 1.6196 6.89889 1.88045 6.5563C2.07056 6.30524 2.33361 6.1771 2.6232 6.17972ZM13.3754 6.17972C13.665 6.1771 13.928 6.30524 14.1181 6.5563C14.379 6.89889 14.4365 7.54485 14.2242 8.06265C13.917 7.40101 13.466 6.81521 12.8979 6.30524C13.0549 6.22417 13.2184 6.18233 13.3754 6.17972ZM5.73567 7.85344C5.16977 7.85344 4.70997 8.3974 4.70997 9.06689C4.70997 9.73638 5.16977 10.2803 5.73567 10.2803C6.30158 10.2803 6.76137 9.73638 6.76137 9.06689C6.76137 8.3974 6.30158 7.85344 5.73567 7.85344ZM10.2629 7.85344C9.697 7.85344 9.23721 8.3974 9.23721 9.06689C9.23721 9.73638 9.697 10.2803 10.2629 10.2803C10.8288 10.2803 11.2886 9.73638 11.2886 9.06689C11.2886 8.3974 10.8288 7.85344 10.2629 7.85344ZM5.18745 11.975C5.54777 12.8563 6.6619 13.7115 7.99929 13.7115C9.33668 13.7115 10.4685 12.8563 10.8288 11.975C10.1745 12.4745 9.14215 12.8118 7.99929 12.8118C6.85643 12.8118 5.84178 12.4745 5.18745 11.975Z"/>
</symbol><symbol id="social-vk" viewBox="0 0 16 10">
<path d="M15.8574 8.42065C15.8144 8.35182 15.5484 7.79922 14.2683 6.66345C12.9282 5.47413 13.1082 5.66725 14.7223 3.6108C15.7054 2.35839 16.0984 1.59355 15.9754 1.26659C15.8584 0.954918 15.1353 1.03714 15.1353 1.03714L12.7312 1.05052C12.7312 1.05052 12.5531 1.02758 12.4201 1.1031C12.2911 1.17768 12.2081 1.34976 12.2081 1.34976C12.2081 1.34976 11.8271 2.31919 11.3191 3.1433C10.248 4.88234 9.81894 4.97412 9.64393 4.86609C9.2369 4.61465 9.33891 3.85459 9.33891 3.31539C9.33891 1.62988 9.60593 0.927192 8.81787 0.745544C8.55585 0.685314 8.36384 0.64516 7.69479 0.638468C6.83672 0.629863 6.10967 0.641336 5.69864 0.8335C5.42462 0.96161 5.21361 1.24747 5.34262 1.26372C5.50163 1.2838 5.86165 1.35646 6.05267 1.60503C6.29969 1.9253 6.29069 2.64616 6.29069 2.64616C6.29069 2.64616 6.4327 4.62994 5.95966 4.8766C5.63464 5.04582 5.1896 4.70069 4.23453 3.12227C3.7455 2.31441 3.37547 1.42051 3.37547 1.42051C3.37547 1.42051 3.30447 1.25416 3.17746 1.16525C3.02345 1.05721 2.80743 1.0228 2.80743 1.0228L0.521262 1.03618C0.521262 1.03618 0.178236 1.04574 0.0522271 1.18819C-0.0597811 1.31535 0.0432264 1.5773 0.0432264 1.5773C0.0432264 1.5773 1.83336 5.58025 3.85951 7.59846C5.71864 9.4484 7.8288 9.32698 7.8288 9.32698H8.78487C8.78487 9.32698 9.07389 9.29639 9.2209 9.14438C9.35691 9.00479 9.35191 8.74284 9.35191 8.74284C9.35191 8.74284 9.33291 7.51624 9.92895 7.33554C10.516 7.15772 11.2701 8.52104 12.0691 9.0459C12.6732 9.44266 13.1322 9.35566 13.1322 9.35566L15.2693 9.32698C15.2693 9.32698 16.3874 9.26101 15.8574 8.42065Z"/>
</symbol></svg>